<mxfile host="app.diagrams.net" modified="2023-07-10T12:15:14.859Z" agent="Mozilla/5.0 (Windows NT 10.0; Win64; x64) AppleWebKit/537.36 (KHTML, like Gecko) Chrome/114.0.0.0 Safari/537.36" version="21.5.2" etag="ZnN5cZpaS5ufu7IsqljT" type="github">
  <diagram name="Page-1" id="R9CPQmrNSaoldl3kKAQT">
    <mxGraphModel>
      <root>
        <mxCell id="0" />
        <mxCell id="1" parent="0" />
      </root>
    </mxGraphModel>
  </diagram>
</mxfile>
